#!OML:ASF F:\VICON\USERDATA\INSTALL\rory3\rory3.ASF
:FULLY-SPECIFIED
:DEGREES
93
root 1.40487 17.7631 -11.0814 -3.26358 -4.09991 -7.61083
lowerback 14.1511 1.75165 5.30881
upperback -1.31066 3.56983 3.42758
thorax -9.29137 1.54317 -0.0832194
lowerneck -11.8903 -1.907 -3.72016
upperneck 24.9679 -1.88734 0.183925
head 9.92463 -1.19884 0.470739
rclavicle -4.47545e-014 -4.63168e-014
rhumerus -31.6611 -2.01818 -80.9372
rradius 36.6281
rwrist -2.61244
rhand -14.2115 8.91544
rfingers 7.12502
rthumb 11.9251 -20.7249
lclavicle -4.47545e-014 -4.63168e-014
lhumerus -41.0558 7.22337 84.9672
lradius 36.2494
lwrist 5.58058
lhand -13.4171 48.7866
lfingers 7.12502
lthumb 12.6911 78.381
rfemur 17.871 4.90889 36.2988
rtibia 7.7322
rfoot -11.5949 -5.97411
rtoes 9.78355
lfemur -28.2961 -14.3738 -6.90136
ltibia 22.0706
lfoot -13.6676 18.6123
ltoes -9.90921
94
root 1.4185 17.7564 -10.9401 -3.01645 -4.4011 -7.98925
lowerback 14.1851 1.70794 5.80997
upperback -1.13781 3.59892 3.55385
thorax -9.10029 1.54195 -0.232876
lowerneck -13.1777 -1.71088 -3.48521
upperneck 25.2305 -1.52176 -0.143861
head 10.2555 -1.04685 0.349371
rclavicle 2.95319e-014 -2.46493e-014
rhumerus -30.8774 -1.81783 -80.9838
rradius 36.4476
rwrist -2.5447
rhand -14.0303 9.29884
rfingers 7.12502
rthumb 12.0999 -20.3313
lclavicle 2.95319e-014 -2.46493e-014
lhumerus -40.6986 7.46152 85.0601
lradius 36.5265
lwrist 5.47162
lhand -13.5071 48.9533
lfingers 7.12502
lthumb 12.6043 78.553
rfemur 17.6674 4.9936 36.5845
rtibia 8.48034
rfoot -11.6392 -5.79263
rtoes 8.42306
lfemur -28.358 -15.1058 -6.02346
ltibia 21.0763
lfoot -14.6971 18.5695
ltoes -9.67007
95
root 1.43951 17.7594 -10.7757 -2.85534 -4.44257 -7.46469
lowerback 13.9556 1.72028 5.52849
upperback -1.11845 3.52982 3.374
thorax -8.95274 1.52231 -0.246408
lowerneck -13.4755 -1.72544 -3.51316
upperneck 25.3869 -1.52161 -0.145577
head 10.3709 -1.05117 0.350647
rclavicle 2.81001e-014 1.55052e-014
rhumerus -30.7064 -1.81927 -81.0077
rradius 36.5269
rwrist -2.59017
rhand -13.8469 9.6227
rfingers 7.12502
rthumb 12.2767 -19.9969
lclavicle 2.81001e-014 1.55052e-014
lhumerus -40.6319 7.28489 85.2179
lradius 36.851
lwrist 5.70997
lhand -13.3297 49.9264
lfingers 7.12502
lthumb 12.7754 79.5155
rfemur 17.6016 4.91241 35.8006
rtibia 9.19357
rfoot -11.8203 -5.55497
rtoes 6.06736
lfemur -28.2254 -15.374 -6.57195
ltibia 20.439
lfoot -15.446 17.8053
ltoes -9.95872
96
root 1.45059 17.7509 -10.6094 -2.88377 -4.76859 -7.51558
lowerback 13.9378 1.80049 5.62994
upperback -1.10484 3.65286 3.39633
thorax -8.91851 1.57815 -0.303801
lowerneck -12.8114 -1.85984 -3.84777
upperneck 25.0995 -1.73845 0.140782
head 10.1483 -1.1474 0.487098
rclavicle -2.56991e-014 6.75868e-015
rhumerus -30.7028 -1.94146 -80.9802
rradius 36.5938
rwrist -2.46862
rhand -13.7656 9.52054
rfingers 7.12502
rthumb 12.3551 -20.0944
lclavicle -2.56991e-014 6.75868e-015
lhumerus -40.6255 7.28256 85.2225
lradius 36.7302
lwrist 5.67987
lhand -13.2992 49.462
lfingers 7.12502
lthumb 12.8047 79.0493
rfemur 17.8797 4.98009 35.7428
rtibia 9.78662
rfoot -11.9054 -5.14981
rtoes 4.76754
lfemur -27.8073 -14.8166 -6.7172
ltibia 20.0925
lfoot -15.1881 16.6986
ltoes -11.3396
97
root 1.45205 17.7389 -10.4608 -2.72425 -4.43981 -7.41928
lowerback 14.0332 1.6952 5.50642
upperback -1.28651 3.51183 3.38042
thorax -9.18452 1.50677 -0.227566
lowerneck -12.9565 -1.66051 -3.63868
upperneck 25.0194 -1.51057 0.179054
head 10.1394 -1.01712 0.492914
rclavicle 1.2129e-015 9.54166e-015
rhumerus -30.8769 -1.93903 -80.9426
rradius 36.6359
rwrist -2.44151
rhand -14.0757 9.46782
rfingers 7.12502
rthumb 12.0561 -20.1649
lclavicle 1.2129e-015 9.54166e-015
lhumerus -40.8126 7.14792 85.3005
lradius 36.803
lwrist 5.50438
lhand -13.1746 49.826
lfingers 7.12502
lthumb 12.9249 79.4057
rfemur 17.7359 4.47053 35.505
rtibia 10.619
rfoot -12.104 -4.67677
rtoes 4.21912
lfemur -27.9367 -13.4182 -7.44635
ltibia 20.2393
lfoot -13.3901 14.7416
ltoes -14.2657
98
root 1.46005 17.7465 -10.2891 -2.61682 -4.38247 -7.34064
lowerback 13.9043 1.67034 5.47099
upperback -1.2488 3.45869 3.37425
thorax -9.07238 1.48649 -0.19854
lowerneck -13.5373 -1.68702 -3.31051
upperneck 25.3006 -1.50066 -0.205914
head 10.3478 -1.02865 0.297388
rclavicle -3.6508e-014 -3.10104e-014
rhumerus -30.8741 -2.01777 -80.8626
rradius 36.8713
rwrist -2.54549
rhand -14.1943 9.69816
rfingers 7.12502
rthumb 11.9417 -19.9412
lclavicle -3.6508e-014 -3.10104e-014
lhumerus -40.7598 7.02313 85.4207
lradius 36.8818
lwrist 5.50979
lhand -13.1568 50.0806
lfingers 7.12502
lthumb 12.9421 79.6592
rfemur 17.875 4.53793 35.371
rtibia 11.218
rfoot -12.0994 -4.43029
rtoes 3.91159
lfemur -27.9161 -12.0599 -8.18272
ltibia 20.8026
lfoot -11.8159 13.2037
ltoes -14.8599
99
root 1.47199 17.7155 -10.1204 -2.48134 -4.20757 -7.37347
lowerback 13.6309 1.66396 5.60453
upperback -1.06744 3.43626 3.37164
thorax -8.70989 1.48124 -0.26037
lowerneck -14.3207 -1.78826 -3.15676
upperneck 25.5587 -1.61009 -0.353068
head 10.5942 -1.08336 0.197084
rclavicle -1.94157e-014 9.93923e-015
rhumerus -30.5013 -2.31225 -80.7702
rradius 37.0602
rwrist -2.68211
rhand -14.0746 9.85645
rfingers 7.12502
rthumb 12.0572 -19.7762
lclavicle -1.94157e-014 9.93923e-015
lhumerus -40.2732 6.74674 85.6403
lradius 36.8376
lwrist 5.4651
lhand -13.2503 49.7555
lfingers 7.12502
lthumb 12.852 79.3398
rfemur 17.93 4.57734 35.3856
rtibia 11.9863
rfoot -12.1784 -4.18292
rtoes 3.98152
lfemur -28.0644 -10.521 -8.89186
ltibia 21.5276
lfoot -10.3275 11.5733
ltoes -14.0123
100
root 1.48348 17.7014 -9.95335 -2.49831 -3.96364 -7.27505
lowerback 13.6865 1.48272 5.51883
upperback -1.01484 3.19141 3.47687
thorax -8.7052 1.37079 -0.0512777
lowerneck -14.8856 -1.48187 -3.13401
upperneck 25.4819 -1.11732 -0.504168
head 10.6681 -0.873398 0.201145
rclavicle 3.29237e-015 1.15295e-014
rhumerus -30.2544 -2.03034 -80.6967
rradius 37.0225
rwrist -2.79987
rhand -13.9 9.79871
rfingers 7.12502
rthumb 12.2255 -19.824
lclavicle 3.29237e-015 1.15295e-014
lhumerus -40.1204 7.17086 85.7584
lradius 36.7458
lwrist 5.17878
lhand -13.3132 49.5997
lfingers 7.12502
lthumb 12.7913 79.1879
rfemur 18.0843 4.63993 35.3109
rtibia 12.7906
rfoot -12.2081 -4.25013
rtoes 4.06806
lfemur -28.043 -9.13031 -9.77361
ltibia 22.3078
lfoot -9.11332 9.95201
ltoes -14.4168
